{
  "accessors": [
    {
      "bufferView": 2,
      "componentType": 5126,
      "count": 9993,
      "max": [
        74.27069091796875,
        26.697973251342773,
        20.66991424560547
      ],
      "min": [
        -74.21347045898438,
        -26.68931007385254,
        -18.953954696655273
      ],
      "type": "VEC3"
    },
    {
      "bufferView": 2,
      "byteOffset": 119916,
      "componentType": 5126,
      "count": 9993,
      "max": [
        0.9999988675117493,
        0.9999991059303284,
        1.0
      ],
      "min": [
        -0.9999995231628418,
        -0.999999463558197,
        -1.0
      ],
      "type": "VEC3"
    },
    {
      "bufferView": 3,
      "componentType": 5126,
      "count": 9993,
      "max": [
        1.0,
        1.0,
        1.0,
        1.0
      ],
      "min": [
        -0.9999994039535522,
        -1.0,
        -1.0,
        -1.0
      ],
      "type": "VEC4"
    },
    {
      "bufferView": 1,
      "componentType": 5126,
      "count": 9993,
      "max": [
        0.9300770163536072,
        0.9950000047683716
      ],
      "min": [
        0.004999999888241291,
        0.07808099687099457
      ],
      "type": "VEC2"
    },
    {
      "bufferView": 0,
      "componentType": 5125,
      "count": 27642,
      "type": "SCALAR"
    },
    {
      "bufferView": 2,
      "byteOffset": 239832,
      "componentType": 5126,
      "count": 9996,
      "max": [
        70.2448959350586,
        74.23405456542969,
        18.78649139404297
      ],
      "min": [
        -74.21347045898438,
        -74.25382995605469,
        -17.603389739990234
      ],
      "type": "VEC3"
    },
    {
      "bufferView": 2,
      "byteOffset": 359784,
      "componentType": 5126,
      "count": 9996,
      "max": [
        0.9999997615814209,
        0.9999978542327881,
        1.0
      ],
      "min": [
        -0.9999991059303284,
        -0.9999987483024597,
        -1.0
      ],
      "type": "VEC3"
    },
    {
      "bufferView": 3,
      "byteOffset": 159888,
      "componentType": 5126,
      "count": 9996,
      "max": [
        0.9999971389770508,
        1.0,
        1.0,
        1.0
      ],
      "min": [
        -1.0,
        -1.0,
        -1.0,
        -1.0
      ],
      "type": "VEC4"
    },
    {
      "bufferView": 1,
      "byteOffset": 79944,
      "componentType": 5126,
      "count": 9996,
      "max": [
        0.9375370144844055,
        0.9950000047683716
      ],
      "min": [
        0.004999999888241291,
        0.061487000435590744
      ],
      "type": "VEC2"
    },
    {
      "bufferView": 0,
      "byteOffset": 110568,
      "componentType": 5125,
      "count": 27840,
      "type": "SCALAR"
    },
    {
      "bufferView": 2,
      "byteOffset": 479736,
      "componentType": 5126,
      "count": 9985,
      "max": [
        70.27417755126953,
        74.23405456542969,
        18.78643035888672
      ],
      "min": [
        -18.711483001708984,
        -74.26983642578125,
        -8.396196365356445
      ],
      "type": "VEC3"
    },
    {
      "bufferView": 2,
      "byteOffset": 599556,
      "componentType": 5126,
      "count": 9985,
      "max": [
        1.0,
        0.9999998807907104,
        1.0
      ],
      "min": [
        -0.9999998807907104,
        -0.9999991059303284,
        -1.0
      ],
      "type": "VEC3"
    },
    {
      "bufferView": 3,
      "byteOffset": 319824,
      "componentType": 5126,
      "count": 9985,
      "max": [
        0.9999996423721313,
        1.0,
        1.0,
        1.0
      ],
      "min": [
        -0.9999982118606567,
        -1.0,
        -1.0,
        -1.0
      ],
      "type": "VEC4"
    },
    {
      "bufferView": 1,
      "byteOffset": 159912,
      "componentType": 5126,
      "count": 9985,
      "max": [
        0.9822059869766235,
        0.9950000047683716
      ],
      "min": [
        0.004999999888241291,
        0.017795000225305557
      ],
      "type": "VEC2"
    },
    {
      "bufferView": 0,
      "byteOffset": 221928,
      "componentType": 5125,
      "count": 27426,
      "type": "SCALAR"
    },
    {
      "bufferView": 2,
      "byteOffset": 719376,
      "componentType": 5126,
      "count": 9992,
      "max": [
        67.50775146484375,
        12.011902809143066,
        14.293516159057617
      ],
      "min": [
        -67.32830810546875,
        -67.51423645019531,
        -8.290811538696289
      ],
      "type": "VEC3"
    },
    {
      "bufferView": 2,
      "byteOffset": 839280,
      "componentType": 5126,
      "count": 9992,
      "max": [
        0.9999774694442749,
        0.9999881386756897,
        1.0
      ],
      "min": [
        -0.9999773502349854,
        -0.9999751448631287,
        -1.0
      ],
      "type": "VEC3"
    },
    {
      "bufferView": 3,
      "byteOffset": 479584,
      "componentType": 5126,
      "count": 9992,
      "max": [
        0.9999982118606567,
        1.0,
        1.0,
        1.0
      ],
      "min": [
        -0.9999980330467224,
        -1.0,
        -1.0,
        -1.0
      ],
      "type": "VEC4"
    },
    {
      "bufferView": 1,
      "byteOffset": 239792,
      "componentType": 5126,
      "count": 9992,
      "max": [
        0.9819629788398743,
        0.9950000047683716
      ],
      "min": [
        0.004999999888241291,
        0.018038000911474228
      ],
      "type": "VEC2"
    },
    {
      "bufferView": 0,
      "byteOffset": 331632,
      "componentType": 5125,
      "count": 23586,
      "type": "SCALAR"
    },
    {
      "bufferView": 2,
      "byteOffset": 959184,
      "componentType": 5126,
      "count": 9993,
      "max": [
        46.20348358154297,
        26.74537467956543,
        28.7860164642334
      ],
      "min": [
        -67.33660888671875,
        -66.83699798583984,
        -18.953954696655273
      ],
      "type": "VEC3"
    },
    {
      "bufferView": 2,
      "byteOffset": 1079100,
      "componentType": 5126,
      "count": 9993,
      "max": [
        0.9997444748878479,
        0.9997528791427612,
        0.9999954700469971
      ],
      "min": [
        -0.9999627470970154,
        -0.9999773502349854,
        -0.9999428987503052
      ],
      "type": "VEC3"
    },
    {
      "bufferView": 3,
      "byteOffset": 639456,
      "componentType": 5126,
      "count": 9993,
      "max": [
        0.99989914894104,
        0.9999986290931702,
        1.0,
        1.0
      ],
      "min": [
        -0.9999794363975525,
        -0.9999991059303284,
        -1.0,
        -1.0
      ],
      "type": "VEC4"
    },
    {
      "bufferView": 1,
      "byteOffset": 319728,
      "componentType": 5126,
      "count": 9993,
      "max": [
        0.9942600131034851,
        0.9950000047683716
      ],
      "min": [
        0.004999999888241291,
        0.008255000226199627
      ],
      "type": "VEC2"
    },
    {
      "bufferView": 0,
      "byteOffset": 425976,
      "componentType": 5125,
      "count": 24942,
      "type": "SCALAR"
    },
    {
      "bufferView": 2,
      "byteOffset": 1199016,
      "componentType": 5126,
      "count": 9989,
      "max": [
        66.76072692871094,
        67.47747802734375,
        28.785781860351563
      ],
      "min": [
        -67.33660888671875,
        -26.172040939331055,
        2.083069086074829
      ],
      "type": "VEC3"
    },
    {
      "bufferView": 2,
      "byteOffset": 1318884,
      "componentType": 5126,
      "count": 9989,
      "max": [
        0.9999943375587463,
        0.9999944567680359,
        0.999996542930603
      ],
      "min": [
        -0.9999943375587463,
        -0.9999944567680359,
        -0.9071258902549744
      ],
      "type": "VEC3"
    },
    {
      "bufferView": 3,
      "byteOffset": 799344,
      "componentType": 5126,
      "count": 9989,
      "max": [
        0.9999935626983643,
        0.998056173324585,
        1.0,
        1.0
      ],
      "min": [
        -0.999993622303009,
        -0.9999960660934448,
        -1.0,
        -1.0
      ],
      "type": "VEC4"
    },
    {
      "bufferView": 1,
      "byteOffset": 399672,
      "componentType": 5126,
      "count": 9989,
      "max": [
        0.9919289946556091,
        0.9950000047683716
      ],
      "min": [
        0.004999999888241291,
        0.004999999888241291
      ],
      "type": "VEC2"
    },
    {
      "bufferView": 0,
      "byteOffset": 525744,
      "componentType": 5125,
      "count": 21024,
      "type": "SCALAR"
    },
    {
      "bufferView": 2,
      "byteOffset": 1438752,
      "componentType": 5126,
      "count": 1982,
      "max": [
        56.456031799316406,
        66.89656066894531,
        14.343952178955078
      ],
      "min": [
        -67.3226547241211,
        -11.734660148620605,
        -8.290811538696289
      ],
      "type": "VEC3"
    },
    {
      "bufferView": 2,
      "byteOffset": 1462536,
      "componentType": 5126,
      "count": 1982,
      "max": [
        0.9911667704582214,
        0.9942286610603333,
        0.6813907027244568
      ],
      "min": [
        -0.9911672472953796,
        -0.9911658763885498,
        -1.0
      ],
      "type": "VEC3"
    },
    {
      "bufferView": 3,
      "byteOffset": 959168,
      "componentType": 5126,
      "count": 1982,
      "max": [
        0.9945158958435059,
        0.9999998807907104,
        0.9999950528144836,
        1.0
      ],
      "min": [
        -0.9944909811019897,
        -0.9759135842323303,
        -0.9999988675117493,
        -1.0
      ],
      "type": "VEC4"
    },
    {
      "bufferView": 1,
      "byteOffset": 479584,
      "componentType": 5126,
      "count": 1982,
      "max": [
        0.9863340258598328,
        0.9950000047683716
      ],
      "min": [
        0.004999999888241291,
        0.009823000058531761
      ],
      "type": "VEC2"
    },
    {
      "bufferView": 0,
      "byteOffset": 609840,
      "componentType": 5125,
      "count": 4536,
      "type": "SCALAR"
    },
    {
      "bufferView": 2,
      "byteOffset": 1486320,
      "componentType": 5126,
      "count": 3560,
      "max": [
        73.5582275390625,
        73.51182556152344,
        28.7860164642334
      ],
      "min": [
        -73.4935531616211,
        -73.55239868164063,
        1.9369020462036133
      ],
      "type": "VEC3"
    },
    {
      "bufferView": 2,
      "byteOffset": 1529040,
      "componentType": 5126,
      "count": 3560,
      "max": [
        0.9999993443489075,
        0.9999992251396179,
        1.0
      ],
      "min": [
        -0.9999018907546997,
        -0.9999845027923584,
        -1.0
      ],
      "type": "VEC3"
    },
    {
      "bufferView": 3,
      "byteOffset": 990880,
      "componentType": 5126,
      "count": 3560,
      "max": [
        0.9999952912330627,
        0.9999911189079285,
        0.9999998211860657,
        1.0
      ],
      "min": [
        -0.9999996423721313,
        -0.999990701675415,
        -0.9999988079071045,
        1.0
      ],
      "type": "VEC4"
    },
    {
      "bufferView": 1,
      "byteOffset": 495440,
      "componentType": 5126,
      "count": 3560,
      "max": [
        0.9995120167732239,
        0.2573240101337433
      ],
      "min": [
        0.0004879999905824661,
        0.0004879999905824661
      ],
      "type": "VEC2"
    },
    {
      "bufferView": 0,
      "byteOffset": 627984,
      "componentType": 5125,
      "count": 5340,
      "type": "SCALAR"
    }
  ],
  "asset": {
    "extras": {
      "author": "@𝕭𝖑𝖚𝖊𝕸𝖔𝖔𝖓 (https://sketchfab.com/Blue.Moon)",
      "license": "CC-BY-4.0 (http://creativecommons.org/licenses/by/4.0/)",
      "source": "https://sketchfab.com/3d-models/space-station-277481bf74b64505a7b99e14d2165be9",
      "title": "Space Station"
    },
    "generator": "Sketchfab-12.67.0",
    "version": "2.0"
  },
  "bufferViews": [
    {
      "buffer": 0,
      "byteLength": 649344,
      "name": "floatBufferViews",
      "target": 34963
    },
    {
      "buffer": 0,
      "byteLength": 523920,
      "byteOffset": 649344,
      "byteStride": 8,
      "name": "floatBufferViews",
      "target": 34962
    },
    {
      "buffer": 0,
      "byteLength": 1571760,
      "byteOffset": 1173264,
      "byteStride": 12,
      "name": "floatBufferViews",
      "target": 34962
    },
    {
      "buffer": 0,
      "byteLength": 1047840,
      "byteOffset": 2745024,
      "byteStride": 16,
      "name": "floatBufferViews",
      "target": 34962
    }
  ],
  "buffers": [
    {
      "byteLength": 3792864,
      "uri": "scene.bin"
    }
  ],
  "images": [
    {
      "uri": "textures/PtexMtl0_baseColor.png"
    },
    {
      "uri": "textures/PtexMtl0_normal.png"
    },
    {
      "uri": "textures/PtexMtl1_baseColor.png"
    },
    {
      "uri": "textures/PtexMtl1_normal.png"
    }
  ],
  "materials": [
    {
      "doubleSided": true,
      "name": "PtexMtl0",
      "normalTexture": {
        "index": 1
      },
      "pbrMetallicRoughness": {
        "baseColorTexture": {
          "index": 0
        },
        "metallicFactor": 0.0,
        "roughnessFactor": 0.5687881097560976
      }
    },
    {
      "doubleSided": true,
      "name": "PtexMtl1",
      "normalTexture": {
        "index": 3
      },
      "pbrMetallicRoughness": {
        "baseColorTexture": {
          "index": 2
        },
        "metallicFactor": 0.0
      }
    }
  ],
  "meshes": [
    {
      "name": "Object_0",
      "primitives": [
        {
          "attributes": {
            "NORMAL": 1,
            "POSITION": 0,
            "TANGENT": 2,
            "TEXCOORD_0": 3
          },
          "indices": 4,
          "material": 0,
          "mode": 4
        }
      ]
    },
    {
      "name": "Object_1",
      "primitives": [
        {
          "attributes": {
            "NORMAL": 6,
            "POSITION": 5,
            "TANGENT": 7,
            "TEXCOORD_0": 8
          },
          "indices": 9,
          "material": 0,
          "mode": 4
        }
      ]
    },
    {
      "name": "Object_2",
      "primitives": [
        {
          "attributes": {
            "NORMAL": 11,
            "POSITION": 10,
            "TANGENT": 12,
            "TEXCOORD_0": 13
          },
          "indices": 14,
          "material": 0,
          "mode": 4
        }
      ]
    },
    {
      "name": "Object_3",
      "primitives": [
        {
          "attributes": {
            "NORMAL": 16,
            "POSITION": 15,
            "TANGENT": 17,
            "TEXCOORD_0": 18
          },
          "indices": 19,
          "material": 0,
          "mode": 4
        }
      ]
    },
    {
      "name": "Object_4",
      "primitives": [
        {
          "attributes": {
            "NORMAL": 21,
            "POSITION": 20,
            "TANGENT": 22,
            "TEXCOORD_0": 23
          },
          "indices": 24,
          "material": 0,
          "mode": 4
        }
      ]
    },
    {
      "name": "Object_5",
      "primitives": [
        {
          "attributes": {
            "NORMAL": 26,
            "POSITION": 25,
            "TANGENT": 27,
            "TEXCOORD_0": 28
          },
          "indices": 29,
          "material": 0,
          "mode": 4
        }
      ]
    },
    {
      "name": "Object_6",
      "primitives": [
        {
          "attributes": {
            "NORMAL": 31,
            "POSITION": 30,
            "TANGENT": 32,
            "TEXCOORD_0": 33
          },
          "indices": 34,
          "material": 0,
          "mode": 4
        }
      ]
    },
    {
      "name": "Object_7",
      "primitives": [
        {
          "attributes": {
            "NORMAL": 36,
            "POSITION": 35,
            "TANGENT": 37,
            "TEXCOORD_0": 38
          },
          "indices": 39,
          "material": 1,
          "mode": 4
        }
      ]
    }
  ],
  "nodes": [
    {
      "children": [
        1
      ],
      "matrix": [
        1.0,
        0.0,
        0.0,
        0.0,
        0.0,
        2.220446049250313e-16,
        -1.0,
        0.0,
        0.0,
        1.0,
        2.220446049250313e-16,
        0.0,
        0.0,
        0.0,
        0.0,
        1.0
      ],
      "name": "Sketchfab_model"
    },
    {
      "children": [
        2,
        3,
        4,
        5,
        6,
        7,
        8,
        9
      ],
      "name": "Untitled.Obj.cleaner.materialmerger.gles"
    },
    {
      "mesh": 0,
      "name": "Object_2"
    },
    {
      "mesh": 1,
      "name": "Object_3"
    },
    {
      "mesh": 2,
      "name": "Object_4"
    },
    {
      "mesh": 3,
      "name": "Object_5"
    },
    {
      "mesh": 4,
      "name": "Object_6"
    },
    {
      "mesh": 5,
      "name": "Object_7"
    },
    {
      "mesh": 6,
      "name": "Object_8"
    },
    {
      "mesh": 7,
      "name": "Object_9"
    }
  ],
  "samplers": [
    {
      "magFilter": 9729,
      "minFilter": 9987,
      "wrapS": 10497,
      "wrapT": 10497
    }
  ],
  "scene": 0,
  "scenes": [
    {
      "name": "Sketchfab_Scene",
      "nodes": [
        0
      ]
    }
  ],
  "textures": [
    {
      "sampler": 0,
      "source": 0
    },
    {
      "sampler": 0,
      "source": 1
    },
    {
      "sampler": 0,
      "source": 2
    },
    {
      "sampler": 0,
      "source": 3
    }
  ]
}
